<?xml version="1.0" encoding="utf-8"?>
<!-- Generator: Adobe Illustrator 27.6.1, SVG Export Plug-In . SVG Version: 6.00 Build 0)  -->
<svg version="1.1" id="Layer_1" xmlns="http://www.w3.org/2000/svg" xmlns:xlink="http://www.w3.org/1999/xlink" x="0px" y="0px"
	 viewBox="0 0 595.3 976" style="enable-background:new 0 0 595.3 976;" xml:space="preserve">
<style type="text/css">
	.st0{fill:#204C39;stroke:#FAB73D;stroke-width:3;stroke-miterlimit:10;}
	.st1{fill:#FAB73D;stroke:#204C39;stroke-width:3;stroke-miterlimit:10;}
</style>
<path class="st0" d="M389.7,312.9c21.3,10.1,33.9,26.7,37.8,49.7c1.9,11.3,0.1,22.2-3.7,32.9c-2.6,7.3-6,14.2-9.9,20.9
	c-0.4,0.8-0.8,1.6-1.7,2c-1.1-0.2-1.4-1-1.9-1.6c-8-9.8-18.3-13.4-30.8-12.3c-24.2,2-45.4,26-49.2,44.3c-0.8,3.7-1.2,7.4-0.8,11.2
	c0.2,1.5-0.3,2.5-1.3,3.5c-9,9-18,17.9-26.9,27c-1.4,1.4-2.3,1.5-3.7,0c-7.6-7.7-15.2-15.3-22.8-22.9c-1.1-1.1-1.5-2.2-1.3-3.8
	c0.8-10.4-2.2-19.6-9.5-27c-12.7-12.9-25.5-25.7-38.3-38.4c-7.4-7.3-17.2-5.1-21.2,4.4c-0.6,1.4-1.2,2.4-2.8,2.9
	c-3.8,1.1-6.3,3.7-7.5,7.4c-1.2,3.7-5.1,3.1-7.4,5.2c-0.5,0.4-1.2-0.5-1.5-1.2c-8.1-14.4-14.9-29.3-14.5-46.2
	c0.7-33.8,26.5-59.6,57.9-62.9c27.1-2.8,54,12.2,65.4,37.4c2.5,5.6,4.1,11.4,5.3,18c1.1-4.1,1.8-7.6,2.9-11
	c7.7-24.6,29.5-41.9,55.1-44.4C368.6,306.7,379.2,308.6,389.7,312.9z"/>
<path class="st1" d="M394.8,468.7c-7.5,6.9-15.1,13-25.3,14.9c-2.9,0.5-6,0.9-8.8,0.1c-3.2-0.9-5.1,0.1-7.1,2.2
	c-11.9,12-23.8,23.9-35.7,35.8c-18.2,18.2-36.3,36.4-54.5,54.5c-7.7,7.7-18.9,6-22.5-3.4c-2-5.3-1-10.1,3.2-14.3
	c15.4-15.3,30.8-30.7,46.2-46.1c15.2-15.2,30.3-30.3,45.5-45.4c1.8-1.8,2.5-3.4,2-6.1c-1.8-9.1,1.5-17.1,6.3-24.4
	c8-12.1,18.5-21,33.1-24.1c13.6-2.9,26.2,3.2,30.3,14.8c3.2,9.1,1.7,17.8-2.1,26.3C402.9,459.3,399.3,464.1,394.8,468.7z"/>
<path class="st1" d="M186.5,433.7c3.4,2.4,6,5.5,8.8,8.3c7,6.9,13.9,13.9,20.9,20.9c0.9,0.9,1.7,1.7,2.7,2.4c1.3,1,2.7,0.7,3.8-0.5
	c1.1-1.1,1.1-2.4,0.1-3.6c-0.7-0.9-1.5-1.6-2.3-2.4c-9-9.1-18.1-18.1-27.1-27.2c-0.5-0.5-1-1-1.4-1.6c-1.5-1.9-1.7-4,0.1-5.8
	c1.8-1.9,4.1-1.8,6-0.2c2.5,2.1,4.7,4.5,7,6.8c7.3,7.3,14.6,14.7,22,22c0.6,0.6,1.3,1.3,2,1.8c1.4,1,2.8,1,4.1-0.3
	c1.3-1.3,0.9-2.6-0.1-3.8c-1.6-1.8-3.4-3.5-5.1-5.3c-8.1-8.1-16.2-16.2-24.3-24.4c-0.5-0.5-1-1-1.4-1.6c-1.2-1.8-1.5-3.6,0-5.3
	c1.6-1.8,3.5-1.9,5.5-0.9c0.9,0.5,1.6,1.2,2.3,1.9c8.8,8.8,17.5,17.5,26.3,26.3c0.8,0.8,1.6,1.6,2.4,2.4c1.4,1.4,3,1.9,4.6,0.4
	c1.6-1.5,1.1-3.1-0.3-4.5c-2.9-2.9-5.7-5.8-8.6-8.6c-6.8-6.8-13.7-13.6-20.5-20.5c-1.5-1.5-2.7-3.1-2.1-5.4c1-3.7,5.1-4.8,8-2.1
	c3.9,3.6,7.6,7.4,11.3,11.1c9,9.1,18,18.2,27,27.3c6.6,6.7,8.9,14.9,7.3,24c-0.4,2.2,0.3,3.4,1.6,4.8c8.3,8.2,16.5,16.6,24.8,24.7
	c1.9,1.9,1.9,3.1-0.1,4.9c-4.6,4.3-9,8.8-13.3,13.4c-1.9,2-3,2.2-5,0.1c-8-8.2-16.2-16.2-24.3-24.4c-1.8-1.8-3.5-2.5-6.1-2.1
	c-8.6,1.5-16.2-0.9-22.4-6.9c-12.9-12.7-25.6-25.5-38.4-38.3c-1.8-1.8-2.5-3.8-1.4-6C181.9,433.6,183.9,433,186.5,433.7z"/>
<path class="st1" d="M316.6,533.8c1.6-1.6,3.1-2.9,4.4-4.5c1.7-2.1,3.1-1.9,4.9,0c8.7,8.8,17.4,17.6,26.2,26.3
	c2.5,2.5,5.3,4.7,6.5,8.3c2,6.1,0,12.1-5.3,15.4c-5.1,3.2-11.5,2.5-16.2-2.1c-9.2-9.1-18.4-18.3-27.6-27.5c-4.4-4.4-4.4-4.4,0-8.8
	C311.9,538.5,314.1,536.2,316.6,533.8z"/>
</svg>
